<?xml version="1.0" encoding="UTF-8"?>
<svg id="Layer_2" data-name="Layer 2" xmlns="http://www.w3.org/2000/svg" viewBox="0 0 72.96 32.8">
  <defs>
    <style>
      .cls-1 {
        fill: #0f143e;
      }

      .cls-2 {
        fill: #01113e;
      }

      .cls-3, .cls-4 {
        fill: #dbdadd;
      }

      .cls-4 {
        stroke: #dbdadd;
      }

      .cls-4, .cls-5, .cls-6 {
        stroke-miterlimit: 10;
      }

      .cls-5 {
        fill: none;
      }

      .cls-5, .cls-6 {
        stroke: #000;
      }
    </style>
  </defs>
  <g id="First-Part-Web-TEXT_ICONS" data-name="First-Part-Web-TEXT&amp;amp;ICONS">
    <g>
      <g>
        <path class="cls-1" d="M51.99,12.83l1.04,5.64,2.9.22-.82,1.48.3,1.48.89.82,2.3-.82-.22-1.26,1.11,1.04,2.3.97,1.11-1.19s.67,1.48.89,1.78.59,2.15.59,2.15l-2.6,1.93.82,1.71,5.35,1.48-.59,2.52,2.54-.91,1.11.84-.33-1.89,1.06.52,1.23.5-2.12-4.06,1.19-1.67-1.3-1.45,1.89-1.15-1.63-1.93,1.69.35-2.34-2.73-.69-2.97.46-.93-2.78-3.62,2.28-4.06-5.29-.67-1.28-2.78-2.38-1.23-2.47-1.95-4.29-.65-7.65,7.8,1.11-7.87-.98-.28-6.29,2.51-2.67,1.71-1.11,2.02-6.68.89,1.78,5.03-1.04,2-1.74,1.43.56,2.17-2.38,2.04,1.63,2-2.15,4.14,2.52-1.54,2.3-2.6,4.23.45.07-3.42,2.52-1.93"/>
        <path class="cls-3" d="M38.92,18.17l1.48,1.04,2.97-1.04,2.08.89,3.86,1.26,1.56-.37,2-2.9.15-3.27s-3.27-3.12-3.71-3.19-3.64-1.04-3.93-1.04h-2l-3.64,2.23-1.3,2.75-.41,1.34.89,2.3Z"/>
        <polygon class="cls-4" points="68.84 7.96 64.72 8.3 66.33 10.86 68.84 7.96"/>
        <path class="cls-4" d="M30.56,7.69c.39.39,1.97,2.94,1.97,2.94l1.73-2.78-3.7-.16Z"/>
        <path class="cls-5" d="M43.95,9.63s-5.18,1.61-5.51,4.9c0,0-1.73,3.29,2.45,4.51,0,0,2.23-.39,2.78-1.95,0,0-.45-1.45-.97-1.82s-2-1-1.74-1.82-.33-2.19,2.34-1.86,3.75-.52,4.05,1.48-3.08,3.01-3.08,3.01l-.56,1.67"/>
        <path class="cls-5" d="M43.6,17.58s2.47,4.14,7.91,1.91"/>
        <path class="cls-5" d="M40.74,19.03s-1.48,4.31,4.12,4.19"/>
        <ellipse class="cls-4" cx="53.92" cy="10.77" rx="1.11" ry="1.17"/>
        <ellipse class="cls-4" cx="40.08" cy="9.16" rx="1.15" ry="1.08" transform="translate(14.46 41.32) rotate(-64.34)"/>
        <polygon class="cls-6" points="45.26 19.07 42.06 18.68 43.6 17.58 45.26 19.07"/>
        <path class="cls-6" d="M43.49,17.09c.07-.11-.93-2.04-.93-2.04l-1.71-1.56.78-1.86,1.11-.11,3.04.3,1.26.33.26,1.41-1.19,1.56-1.74.93-.89,1.04Z"/>
      </g>
      <path class="cls-2" d="M16.41.91s0,.01.02.01l.22-.02h.65c.9-.01,1.8.1,2.68.3s1.77.51,2.59.93c2,1.03,3.61,2.7,4.1,4.94.02.07.04.12.03.19,0,0,.01.03.02.02l.09.82s.02.13,0,.23c.02,1.55-.54,2.99-1.48,4.23l1.04,4.71c.04.2-.04.38-.19.49-.16.12-.37.12-.54,0l-3.43-2.55c-.72.4-1.48.72-2.27.96-.26.68-.61,1.31-1.06,1.89l1.03,4.69c.06.23-.04.45-.25.56-.02,0-.03.01-.03.03l-.25.03s-.11-.03-.2-.1l-3.42-2.55c-2.07,1.14-4.45,1.64-6.79,1.54-1.79-.09-3.57-.55-5.13-1.44-1.79-1.03-3.21-2.61-3.68-4.66-.02-.08-.05-.14-.04-.23,0-.01-.01-.03-.02-.02L0,15.05s.02-.05,0-.07c-.02-.06,0-.1,0-.16,0-2.27,1.18-4.23,2.88-5.67,1.17-.99,2.53-1.69,3.99-2.15.54-1.44,1.53-2.64,2.73-3.58,1.47-1.15,3.21-1.89,5.03-2.26l.23-.05c.08-.03.17,0,.24-.04l1.3-.15ZM5.21,15.82s.04.02.06.03c.14.04.3.06.44.03.47-.08.8-.49.8-.95s-.33-.87-.79-.95c-.26-.04-.52,0-.73.17-.26.21-.42.5-.4.84.02.23.12.46.28.61.09.08.26.22.33.21ZM10.87,15.09l.07-.08c.21-.26.28-.62.15-.93-.2-.52-.75-.76-1.25-.56-.28.11-.49.35-.57.64-.13.45.1.93.52,1.13,0,0,.02-.01.03,0l.02.02c.21.09.43.09.65.02.12-.04.32-.15.39-.24ZM14.63,14.83c.39.09.79-.08,1.01-.41.1-.16.17-.33.14-.51.04-.17-.05-.42-.17-.58-.03-.04-.06-.09-.11-.11,0-.03-.03-.04-.05-.06-.28-.27-.8-.31-1.14-.07l-.06.04c-.15.11-.27.27-.33.45,0,.03,0,.04-.01.07-.05.08-.03.19-.04.28,0,.05.01.08.02.13l.02.1c.11.35.36.59.72.67Z"/>
    </g>
  </g>
</svg>